<svg width="24" height="24" viewBox="0 0 24 24" fill="none" xmlns="http://www.w3.org/2000/svg">
  <path d="M20.317 4.369A19.791 19.791 0 0 0 16.558 3c-.176.312-.38.73-.52 1.061a18.27 18.27 0 0 0-4.076 0A7.143 7.143 0 0 0 11.44 3a19.736 19.736 0 0 0-3.76 1.369C3.61 8.383 2.97 12.28 3.213 16.13A19.9 19.9 0 0 0 8.06 18c.38-.52.72-1.073.999-1.658-.55-.209-1.077-.465-1.574-.765.132-.096.261-.196.386-.3 2.976 1.396 6.214 1.396 9.19 0 .126.104.255.204.387.3-.497.3-1.024.556-1.575.765.279.585.62 1.138.999 1.658a19.86 19.86 0 0 0 4.847-1.87c.276-4.309-.71-8.174-2.422-11.761ZM9.6 14.5c-.89 0-1.614-.82-1.614-1.83 0-1.01.72-1.83 1.614-1.83.895 0 1.618.82 1.614 1.83 0 1.01-.72 1.83-1.614 1.83Zm4.8 0c-.89 0-1.614-.82-1.614-1.83 0-1.01.72-1.83 1.614-1.83.895 0 1.618.82 1.614 1.83 0 1.01-.72 1.83-1.614 1.83Z" fill="#FFFFFF"/>
</svg>

